<?xml version="1.0" encoding="UTF-8"?> <svg xmlns="http://www.w3.org/2000/svg" width="176" height="29" viewBox="0 0 176 29" fill="none"><path d="M33.66 6.50244C33.6702 6.36452 33.733 6.23578 33.8353 6.14275C33.9376 6.04973 34.0717 5.9995 34.21 6.00244H36.21C36.3559 6.00244 36.4958 6.06039 36.5989 6.16353C36.7021 6.26668 36.76 6.40657 36.76 6.55244V12.7524L42.55 6.23244C42.5999 6.15967 42.6672 6.10052 42.7458 6.06035C42.8244 6.02019 42.9118 6.00028 43 6.00244H45.3C45.3968 5.99807 45.4927 6.0231 45.575 6.07425C45.6573 6.12539 45.7222 6.20026 45.7612 6.289C45.8001 6.37774 45.8113 6.47619 45.7933 6.5714C45.7752 6.66662 45.7287 6.75413 45.66 6.82244L39.66 13.5724L46.09 21.2624C46.1452 21.3384 46.1784 21.428 46.1859 21.5216C46.1935 21.6152 46.175 21.709 46.1326 21.7928C46.0902 21.8765 46.0255 21.947 45.9457 21.9963C45.8658 22.0456 45.7739 22.072 45.68 22.0724H43.18C43.1027 22.0768 43.0253 22.0649 42.9529 22.0373C42.8805 22.0097 42.8148 21.9672 42.76 21.9124L36.76 14.5124V21.5124C36.76 21.6592 36.7024 21.8002 36.5995 21.9049C36.4967 22.0097 36.3568 22.0698 36.21 22.0724H34.21C34.1369 22.0725 34.0646 22.0579 33.9972 22.0296C33.9298 22.0014 33.8687 21.96 33.8175 21.9078C33.7663 21.8557 33.726 21.7939 33.699 21.726C33.6719 21.6581 33.6587 21.5855 33.66 21.5124V6.50244Z" fill="#0A2A66"></path><path d="M47.78 6.45239C47.7893 6.32286 47.845 6.201 47.9368 6.10917C48.0286 6.01734 48.1505 5.96168 48.28 5.95239H50.14C50.2728 5.95485 50.3996 6.00801 50.4944 6.10099C50.5893 6.19396 50.6449 6.31969 50.65 6.45239V12.0824C51.4124 11.4672 52.371 11.1477 53.35 11.1824C56.73 11.1824 57.65 13.5224 57.65 16.1824V21.5024C57.6451 21.6361 57.5897 21.7629 57.4952 21.8575C57.4006 21.9521 57.2737 22.0074 57.14 22.0124H55.28C55.1465 22.0098 55.0193 21.9549 54.9259 21.8595C54.8324 21.7642 54.78 21.6359 54.78 21.5024V16.1624C54.78 14.6924 54.11 13.8024 52.85 13.8024C52.3198 13.7918 51.804 13.9748 51.399 14.3172C50.994 14.6596 50.7278 15.1378 50.65 15.6624V21.5124C50.65 21.8124 50.51 22.0224 50.09 22.0224H48.28C48.1473 22.0173 48.0216 21.9616 47.9286 21.8668C47.8357 21.772 47.7825 21.6452 47.78 21.5124V6.45239Z" fill="#0A2A66"></path><path d="M63.4799 15.3124C64.1569 15.324 64.8294 15.4249 65.4799 15.6124C65.4799 14.2624 65.1399 13.6124 64.0099 13.6124C62.9985 13.6295 61.9921 13.7603 61.0099 14.0024C60.6599 14.1224 60.4599 13.8724 60.4099 13.5524L60.1799 12.3524C60.1553 12.2882 60.1447 12.2196 60.1488 12.151C60.153 12.0824 60.1718 12.0155 60.204 11.9549C60.2363 11.8942 60.2811 11.8412 60.3356 11.7993C60.3901 11.7575 60.453 11.7278 60.5199 11.7124C61.7001 11.3712 62.9214 11.1929 64.1499 11.1824C67.4599 11.1824 68.1499 12.9024 68.1499 15.8024V21.5124C68.1499 21.6476 68.0962 21.7774 68.0006 21.873C67.9049 21.9686 67.7752 22.0224 67.6399 22.0224H66.8599C66.6799 22.0224 66.5399 21.9524 66.3999 21.6524L66.0999 20.9424C65.6602 21.373 65.1395 21.7122 64.568 21.9405C63.9964 22.1688 63.3853 22.2816 62.7699 22.2724C62.2877 22.3024 61.8046 22.2286 61.3533 22.0561C60.902 21.8836 60.4929 21.6163 60.1536 21.2723C59.8144 20.9283 59.5528 20.5155 59.3865 20.0618C59.2203 19.6082 59.1533 19.1241 59.1899 18.6424C59.2499 16.7624 60.7899 15.3124 63.4799 15.3124ZM63.5499 20.1324C63.9367 20.1215 64.3142 20.0121 64.6468 19.8143C64.9793 19.6165 65.2558 19.337 65.4499 19.0024V17.4524C64.9549 17.2479 64.4255 17.1393 63.8899 17.1324C62.6699 17.1324 62.0099 17.7024 62.0099 18.6424C61.9957 18.846 62.0262 19.0503 62.0993 19.241C62.1724 19.4316 62.2863 19.6039 62.4331 19.7459C62.5798 19.8878 62.7558 19.996 62.9487 20.0628C63.1416 20.1295 63.3468 20.1533 63.5499 20.1324V20.1324Z" fill="#0A2A66"></path><path d="M70.5901 11.9225C70.5901 11.7872 70.6438 11.6575 70.7395 11.5618C70.8351 11.4662 70.9648 11.4125 71.1001 11.4125H72.0001C72.0995 11.4049 72.1983 11.433 72.2789 11.4916C72.3595 11.5502 72.4166 11.6356 72.4401 11.7325L72.8301 12.7325C73.2448 12.2318 73.7687 11.8328 74.3615 11.5658C74.9543 11.2989 75.6003 11.1712 76.2501 11.1925C79.6201 11.1925 80.4901 13.4625 80.4901 16.0325V21.5225C80.4806 21.6483 80.4256 21.7664 80.3355 21.8547C80.2453 21.943 80.1261 21.9955 80.0001 22.0025H78.1001C77.9648 22.0025 77.8351 21.9487 77.7395 21.8531C77.6438 21.7575 77.5901 21.6277 77.5901 21.4925V16.0025C77.5901 14.6325 77.0401 13.7825 75.7601 13.7825C75.2491 13.7685 74.7476 13.9223 74.3323 14.2203C73.917 14.5182 73.6106 14.944 73.4601 15.4325V21.4925C73.4601 21.8825 73.3001 22.0025 72.8001 22.0025H71.1001C70.9664 21.9975 70.8396 21.9422 70.745 21.8476C70.6504 21.753 70.595 21.6262 70.5901 21.4925V11.9225Z" fill="#0A2A66"></path><path d="M85.89 21.4224L93 6.00241C93.031 5.92542 93.0852 5.86 93.1551 5.8152C93.225 5.77041 93.3071 5.74846 93.39 5.75241H93.62C93.7015 5.74908 93.782 5.77142 93.8502 5.81627C93.9184 5.86112 93.9708 5.92622 94 6.00241L101.07 21.4524C101.104 21.5169 101.12 21.5893 101.117 21.6622C101.113 21.735 101.091 21.8056 101.051 21.8668C101.011 21.9279 100.956 21.9773 100.891 22.0099C100.825 22.0426 100.753 22.0572 100.68 22.0524H98.68C98.533 22.0615 98.3872 22.0211 98.2658 21.9378C98.1444 21.8544 98.0543 21.7328 98.01 21.5924L96.89 19.1124H90.07L88.94 21.5924C88.8919 21.7285 88.8024 21.846 88.684 21.9285C88.5656 22.0111 88.4243 22.0544 88.28 22.0524H86.28C86.2016 22.0657 86.121 22.0553 86.0485 22.0225C85.976 21.9898 85.915 21.9362 85.8731 21.8686C85.8313 21.8009 85.8105 21.7224 85.8135 21.6429C85.8165 21.5634 85.8431 21.4867 85.89 21.4224V21.4224ZM95.8 16.5324L93.51 11.4824H93.44L91.19 16.5324H95.8Z" fill="#0A2A66"></path><path d="M107 11.1825C107.759 11.1781 108.509 11.3386 109.2 11.6529C109.891 11.9671 110.505 12.4276 111 13.0025C111.23 13.2325 111.12 13.5325 110.89 13.7625L109.89 14.8225C109.66 15.0725 109.41 14.9525 109.2 14.7525C108.932 14.4603 108.606 14.2276 108.242 14.0691C107.879 13.9107 107.487 13.83 107.09 13.8325C106.712 13.8293 106.338 13.9033 105.989 14.0499C105.641 14.1964 105.326 14.4125 105.064 14.6848C104.802 14.9572 104.598 15.2801 104.465 15.6339C104.332 15.9877 104.272 16.3649 104.29 16.7425C104.267 17.1211 104.322 17.5005 104.451 17.8571C104.58 18.2138 104.782 18.54 105.042 18.8157C105.303 19.0913 105.617 19.3105 105.966 19.4596C106.315 19.6087 106.691 19.6845 107.07 19.6825C107.511 19.6775 107.944 19.569 108.335 19.3657C108.725 19.1625 109.063 18.8702 109.32 18.5125C109.403 18.4221 109.515 18.3651 109.637 18.3522C109.758 18.3393 109.881 18.3714 109.98 18.4425L110.98 19.3125C111.23 19.5425 111.35 19.8025 111.16 20.0725C110.718 20.7805 110.097 21.3594 109.359 21.7509C108.622 22.1424 107.794 22.3326 106.96 22.3025C106.212 22.3342 105.465 22.2143 104.765 21.95C104.065 21.6857 103.425 21.2823 102.884 20.7643C102.344 20.2463 101.914 19.6242 101.62 18.9356C101.326 18.2471 101.175 17.5061 101.175 16.7575C101.175 16.0088 101.326 15.2679 101.62 14.5793C101.914 13.8907 102.344 13.2686 102.884 12.7506C103.425 12.2326 104.065 11.8293 104.765 11.5649C105.465 11.3006 106.212 11.1807 106.96 11.2125L107 11.1825Z" fill="#0A2A66"></path><path d="M116.83 15.3124C117.507 15.3254 118.179 15.4262 118.83 15.6124C118.83 14.2624 118.48 13.6124 117.36 13.6124C116.349 13.6296 115.342 13.7604 114.36 14.0024C114.02 14.1224 113.81 13.8724 113.77 13.5524L113.54 12.3524C113.515 12.2882 113.505 12.2196 113.509 12.151C113.513 12.0824 113.532 12.0155 113.564 11.9549C113.596 11.8942 113.641 11.8412 113.696 11.7993C113.75 11.7575 113.813 11.7278 113.88 11.7124C115.06 11.3712 116.282 11.1929 117.51 11.1824C120.81 11.1824 121.51 12.9024 121.51 15.8024V21.5124C121.51 21.6459 121.458 21.7741 121.364 21.8695C121.271 21.9649 121.144 22.0198 121.01 22.0224H120.23C120.04 22.0224 119.91 21.9524 119.77 21.6524L119.47 20.9424C119.03 21.3721 118.509 21.7107 117.937 21.9389C117.366 22.1672 116.755 22.2805 116.14 22.2724C115.658 22.3024 115.175 22.2286 114.723 22.0561C114.272 21.8836 113.863 21.6163 113.524 21.2723C113.184 20.9283 112.923 20.5155 112.757 20.0618C112.59 19.6082 112.523 19.1241 112.56 18.6424C112.61 16.7624 114.15 15.3124 116.83 15.3124ZM116.9 20.1324C117.288 20.1214 117.667 20.0119 118.001 19.8142C118.335 19.6165 118.614 19.3372 118.81 19.0024V17.4524C118.315 17.2479 117.786 17.1393 117.25 17.1324C116.03 17.1324 115.37 17.7024 115.37 18.6424C115.354 18.8455 115.383 19.0497 115.455 19.2403C115.527 19.431 115.64 19.6035 115.786 19.7457C115.932 19.8878 116.108 19.9962 116.3 20.063C116.493 20.1298 116.697 20.1535 116.9 20.1324V20.1324Z" fill="#0A2A66"></path><path d="M128.62 11.1824C129.489 11.1836 130.351 11.3324 131.17 11.6224V6.45239C131.179 6.32286 131.235 6.201 131.327 6.10917C131.419 6.01734 131.54 5.96168 131.67 5.95239H133.53C133.663 5.95485 133.79 6.00801 133.884 6.10099C133.979 6.19396 134.035 6.31969 134.04 6.45239V21.5124C134.04 21.6477 133.986 21.7774 133.891 21.873C133.795 21.9687 133.665 22.0224 133.53 22.0224H132.68C132.43 22.0224 132.27 21.8124 132.18 21.5124L131.9 20.6824C131.472 21.1816 130.942 21.5823 130.344 21.8568C129.747 22.1312 129.097 22.273 128.44 22.2724C125.54 22.2724 123.36 19.9324 123.36 16.7124C123.316 15.9975 123.42 15.2813 123.665 14.6084C123.91 13.9354 124.291 13.3203 124.785 12.8013C125.279 12.2824 125.874 11.8708 126.534 11.5922C127.194 11.3137 127.904 11.1742 128.62 11.1824V11.1824ZM131.17 14.4024C130.504 14.0006 129.738 13.7928 128.96 13.8024C128.591 13.8065 128.227 13.8867 127.891 14.038C127.554 14.1893 127.253 14.4083 127.005 14.6815C126.757 14.9546 126.569 15.276 126.451 15.6255C126.333 15.9749 126.288 16.3449 126.32 16.7124C126.32 18.2124 127.17 19.6524 128.83 19.6524C129.323 19.6741 129.811 19.545 130.229 19.2824C130.647 19.0198 130.975 18.6361 131.17 18.1824V14.4024Z" fill="#0A2A66"></path><path d="M141.22 11.1825C141.868 11.1658 142.512 11.2816 143.113 11.523C143.714 11.7643 144.259 12.126 144.715 12.5859C145.171 13.0458 145.529 13.5941 145.765 14.1971C146.002 14.8001 146.112 15.4452 146.09 16.0925C146.09 16.2525 146.09 16.6225 146.04 16.7825C146.028 16.9092 145.971 17.0274 145.879 17.1156C145.788 17.2037 145.667 17.2558 145.54 17.2625H138.74C138.752 17.5974 138.829 17.9268 138.968 18.2317C139.107 18.5367 139.305 18.8113 139.55 19.0397C139.795 19.2682 140.083 19.4461 140.397 19.5633C140.711 19.6804 141.045 19.7345 141.38 19.7225C142.205 19.7391 143.009 19.4627 143.65 18.9425C143.91 18.7325 144.18 18.7125 144.34 18.9425L145.24 20.1325C145.288 20.1783 145.325 20.234 145.348 20.2956C145.372 20.3573 145.382 20.4234 145.377 20.4892C145.372 20.5551 145.353 20.6191 145.321 20.6767C145.288 20.7343 145.244 20.784 145.19 20.8225C144.092 21.7668 142.689 22.2818 141.24 22.2725C140.519 22.2729 139.804 22.128 139.14 21.8463C138.476 21.5647 137.875 21.152 137.374 20.6331C136.873 20.1141 136.481 19.4995 136.223 18.8259C135.965 18.1523 135.845 17.4335 135.87 16.7125C135.849 15.9956 135.971 15.2817 136.23 14.613C136.489 13.9442 136.88 13.3341 137.378 12.8186C137.877 12.3032 138.474 11.8929 139.134 11.6118C139.793 11.3308 140.503 11.1848 141.22 11.1825ZM143.22 15.3825C143.192 14.8767 142.966 14.4022 142.593 14.0602C142.219 13.7182 141.726 13.536 141.22 13.5525C140.682 13.5121 140.149 13.6793 139.731 14.0196C139.312 14.36 139.04 14.8477 138.97 15.3825H143.22Z" fill="#0A2A66"></path><path d="M147.79 11.9223C147.79 11.7888 147.842 11.6606 147.936 11.5652C148.029 11.4699 148.157 11.415 148.29 11.4123H149.12C149.216 11.4022 149.312 11.427 149.391 11.4821C149.47 11.5372 149.527 11.619 149.55 11.7123L149.94 12.7123C150.323 12.2211 150.815 11.8261 151.378 11.5588C151.94 11.2914 152.557 11.1591 153.18 11.1723C153.802 11.1444 154.421 11.2779 154.977 11.56C155.532 11.8422 156.006 12.2633 156.35 12.7823C156.771 12.2835 157.294 11.8815 157.884 11.6036C158.474 11.3257 159.118 11.1786 159.77 11.1723C163.16 11.1723 163.97 13.3323 163.97 16.0823V21.5023C163.969 21.5706 163.954 21.638 163.927 21.7006C163.899 21.7632 163.86 21.8198 163.811 21.8671C163.761 21.9145 163.703 21.9517 163.64 21.9766C163.576 22.0015 163.508 22.0137 163.44 22.0123H161.6C161.467 22.0097 161.339 21.9548 161.246 21.8595C161.152 21.7641 161.1 21.6359 161.1 21.5023V16.0023C161.1 14.6323 160.59 13.7823 159.26 13.7823C158.854 13.7398 158.445 13.8224 158.088 14.019C157.73 14.2156 157.441 14.5169 157.26 14.8823C157.26 14.8823 157.26 15.4123 157.26 15.8823V21.4823C157.258 21.6151 157.204 21.7419 157.111 21.8368C157.018 21.9316 156.893 21.9873 156.76 21.9923H155C154.933 21.9937 154.866 21.9814 154.803 21.9563C154.741 21.9312 154.684 21.8936 154.636 21.846C154.589 21.7984 154.551 21.7416 154.526 21.6791C154.501 21.6166 154.489 21.5497 154.49 21.4823V16.0023C154.49 14.6323 154.1 13.7823 152.75 13.7823C152.28 13.7938 151.828 13.9627 151.465 14.2618C151.102 14.561 150.851 14.9732 150.75 15.4323V21.4923C150.748 21.6251 150.694 21.7519 150.601 21.8468C150.508 21.9416 150.383 21.9973 150.25 22.0023H148.39C148.257 21.9973 148.132 21.9416 148.039 21.8468C147.946 21.7519 147.893 21.6251 147.89 21.4923L147.79 11.9223Z" fill="#0A2A66"></path><path d="M165.07 12.1024C165.03 12.0274 165.011 11.9428 165.015 11.8577C165.019 11.7727 165.046 11.6903 165.093 11.6194C165.14 11.5486 165.206 11.4919 165.283 11.4554C165.36 11.419 165.445 11.4041 165.53 11.4124H167.73C167.827 11.4038 167.923 11.4291 168.004 11.4837C168.084 11.5384 168.143 11.6192 168.17 11.7124L170.07 18.0424H170.12L172.53 11.7124C172.69 11.4324 172.87 11.4124 173.2 11.4124H175.2C175.285 11.4041 175.37 11.419 175.447 11.4554C175.524 11.4919 175.59 11.5486 175.637 11.6194C175.684 11.6903 175.711 11.7727 175.715 11.8577C175.719 11.9428 175.7 12.0274 175.66 12.1024L169.41 27.1624C169.371 27.2534 169.307 27.3316 169.226 27.3882C169.144 27.4447 169.049 27.4774 168.95 27.4824H166.75C166.664 27.4896 166.577 27.4731 166.499 27.4348C166.421 27.3966 166.355 27.3379 166.308 27.265C166.26 27.1922 166.234 27.1079 166.231 27.0211C166.228 26.9344 166.248 26.8484 166.29 26.7724L168.42 21.4024L165.07 12.1024Z" fill="#0A2A66"></path><path d="M2.30991 5.80251C1.83238 6.10475 1.43367 6.51634 1.14675 7.00323C0.859828 7.49013 0.692949 8.03833 0.659912 8.60251V19.4025C0.692949 19.9667 0.859828 20.5149 1.14675 21.0018C1.43367 21.4887 1.83238 21.9003 2.30991 22.2025L11.9999 27.6225C12.5135 27.8742 13.0779 28.005 13.6499 28.005C14.2219 28.005 14.7863 27.8742 15.2999 27.6225L24.9999 22.2025C25.4774 21.9003 25.8762 21.4887 26.1631 21.0018C26.45 20.5149 26.6169 19.9667 26.6499 19.4025V8.60251C26.6169 8.03833 26.45 7.49013 26.1631 7.00323C25.8762 6.51634 25.4774 6.10475 24.9999 5.80251L15.3099 0.382508C14.7963 0.13084 14.2319 0 13.6599 0C13.0879 0 12.5235 0.13084 12.0099 0.382508L2.30991 5.80251Z" fill="#14BF96"></path><path d="M23.6101 11.3225C18.2301 11.3225 14.2101 15.7825 14.2101 21.2525V21.4825H13.1301V21.2525C13.1301 15.7825 9.1301 11.3425 3.7101 11.3225C3.7101 11.6625 3.7101 12.0125 3.7101 12.3225C3.69942 14.3432 4.30674 16.3189 5.45064 17.9847C6.59454 19.6505 8.22034 20.9268 10.1101 21.6425C11.2601 22.0642 12.4752 22.2808 13.7001 22.2825C14.9348 22.2808 16.1597 22.0643 17.3201 21.6425C19.2072 20.924 20.83 19.6467 21.9719 17.9813C23.1137 16.3159 23.7201 14.3417 23.7101 12.3225C23.6601 12.0025 23.6401 11.6625 23.6101 11.3225Z" fill="white"></path><path d="M13.6599 11.7424C15.3168 11.7424 16.6599 10.3993 16.6599 8.74243C16.6599 7.08558 15.3168 5.74243 13.6599 5.74243C12.0031 5.74243 10.6599 7.08558 10.6599 8.74243C10.6599 10.3993 12.0031 11.7424 13.6599 11.7424Z" fill="white"></path></svg> 